#!OML:ASF F:\VICON\USERDATA\INSTALL\rory3\rory3.ASF
:FULLY-SPECIFIED
:DEGREES
424
root 0.080371 17.9138 -0.884842 0.747862 -9.10137 3.49157
lowerback -1.00246 -2.24359 -4.12197
upperback -0.260346 -2.9657 2.65469
thorax 0.644815 -1.4992 4.99933
lowerneck -19.4842 1.83198 -9.20829
upperneck 22.2842 4.51951 3.51071
head 10.0345 1.71523 3.40109
rclavicle 6.06169e-014 -2.78299e-014
rhumerus -36.0499 -12.7585 -70.2957
rradius 34.3333
rwrist 16.9367
rhand -27.3056 8.6999
rfingers 7.12502
rthumb -0.715275 -21.2786
lclavicle 6.06169e-014 -2.78299e-014
lhumerus 19.9315 -17.2558 68.0813
lradius 109.102
lwrist -3.87465
lhand -26.9037 23.0355
lfingers 7.12502
lthumb -0.327078 53.015
rfemur -8.11761 7.37545 12.2049
rtibia 27.9319
rfoot -17.6956 -2.35143
rtoes 3.29373
lfemur 1.28456 -1.3272 -24.4231
ltibia 12.5096
lfoot -10.518 4.06319
ltoes -11.6087
425
root 0.082108 17.9156 -0.880611 0.740752 -9.10968 3.45522
lowerback -1.04185 -2.25251 -4.04924
upperback -0.230184 -2.97724 2.67337
thorax 0.69663 -1.50683 4.97484
lowerneck -19.6138 1.86116 -9.09748
upperneck 22.1264 4.56867 3.38646
head 10.0051 1.73782 3.34349
rclavicle -3.10601e-014 -4.77083e-015
rhumerus -35.8771 -12.796 -70.3078
rradius 34.321
rwrist 17.1231
rhand -27.2358 8.85528
rfingers 7.12502
rthumb -0.647867 -21.1235
lclavicle -3.10601e-014 -4.77083e-015
lhumerus 20.5113 -16.8681 67.6862
lradius 108.927
lwrist -3.90562
lhand -26.9373 22.8199
lfingers 7.12502
lthumb -0.359538 52.7993
rfemur -8.07561 7.34955 12.2303
rtibia 27.929
rfoot -17.7116 -2.27087
rtoes 3.54904
lfemur 1.34159 -1.30546 -24.3961
ltibia 12.483
lfoot -10.5488 4.07108
ltoes -11.5976
426
root 0.082597 17.9169 -0.879108 0.741127 -9.10605 3.4475
lowerback -1.09879 -2.26458 -4.03445
upperback -0.195295 -2.99184 2.68493
thorax 0.766074 -1.51666 4.97479
lowerneck -19.705 1.92499 -8.97402
upperneck 21.9314 4.64899 3.29327
head 9.95209 1.78122 3.29686
rclavicle -1.29459e-014 7.95139e-016
rhumerus -35.7235 -12.7969 -70.3443
rradius 34.3777
rwrist 17.2597
rhand -27.1796 8.86774
rfingers 7.12502
rthumb -0.593596 -21.1112
lclavicle -1.29459e-014 7.95139e-016
lhumerus 21.0054 -16.516 67.3542
lradius 108.751
lwrist -4.01374
lhand -26.9594 22.6599
lfingers 7.12502
lthumb -0.380854 52.6393
rfemur -8.06691 7.33023 12.2345
rtibia 27.9238
rfoot -17.7 -2.27062
rtoes 3.39733
lfemur 1.37584 -1.27612 -24.3897
ltibia 12.4449
lfoot -10.5922 4.02565
ltoes -11.5656
427
root 0.0825755 17.9163 -0.880289 0.719599 -9.10252 3.50704
lowerback -1.04168 -2.27595 -4.09711
upperback -0.215396 -3.00819 2.68813
thorax 0.718664 -1.52345 5.01611
lowerneck -19.8256 1.99336 -8.88739
upperneck 21.7628 4.73929 3.24391
head 9.91117 1.83049 3.2747
rclavicle -1.51573e-014 9.54166e-015
rhumerus -35.6511 -12.6912 -70.3909
rradius 34.4575
rwrist 17.2593
rhand -27.3534 8.75754
rfingers 7.12502
rthumb -0.761417 -21.2208
lclavicle -1.51573e-014 9.54166e-015
lhumerus 21.4192 -16.2219 67.1102
lradius 108.642
lwrist -4.14975
lhand -27.1205 22.5916
lfingers 7.12502
lthumb -0.536437 52.5707
rfemur -8.06009 7.36182 12.1743
rtibia 27.92
rfoot -17.7344 -2.30886
rtoes 3.33653
lfemur 1.40142 -1.27141 -24.4502
ltibia 12.3882
lfoot -10.5523 4.01457
ltoes -11.6124
428
root 0.0836059 17.9149 -0.87837 0.700298 -9.10815 3.56386
lowerback -1.02446 -2.28225 -4.139
upperback -0.235233 -3.01671 2.68633
thorax 0.691642 -1.52672 5.03896
lowerneck -19.8284 2.03761 -8.85492
upperneck 21.5252 4.79011 3.22914
head 9.82437 1.86398 3.26329
rclavicle -6.83322e-015 3.97569e-015
rhumerus -35.6082 -12.5928 -70.4495
rradius 34.5633
rwrist 17.1822
rhand -27.3625 8.47255
rfingers 7.12502
rthumb -0.770215 -21.5058
lclavicle -6.83322e-015 3.97569e-015
lhumerus 21.9152 -15.9326 66.8815
lradius 108.485
lwrist -4.26814
lhand -27.2142 22.4612
lfingers 7.12502
lthumb -0.626975 52.44
rfemur -8.04264 7.34641 12.106
rtibia 27.918
rfoot -17.7189 -2.28126
rtoes 3.43083
lfemur 1.43964 -1.33057 -24.5242
ltibia 12.3326
lfoot -10.4765 4.0724
ltoes -11.6722
429
root 0.0854148 17.9159 -0.874829 0.715554 -9.12877 3.53874
lowerback -1.08688 -2.27958 -4.08694
upperback -0.217231 -3.01178 2.69947
thorax 0.742636 -1.52584 5.02017
lowerneck -19.8814 2.06258 -8.79604
upperneck 21.2936 4.81044 3.21681
head 9.75185 1.8854 3.24603
rclavicle -5.59082e-015 -2.46493e-014
rhumerus -35.5189 -12.5701 -70.504
rradius 34.6918
rwrist 17.1722
rhand -27.2982 8.28526
rfingers 7.12502
rthumb -0.708128 -21.6933
lclavicle -5.59082e-015 -2.46493e-014
lhumerus 22.4495 -15.6435 66.6418
lradius 108.255
lwrist -4.4169
lhand -27.4704 22.1335
lfingers 7.12502
lthumb -0.874437 52.1114
rfemur -8.06214 7.33737 12.1226
rtibia 27.9303
rfoot -17.7035 -2.2863
rtoes 3.404
lfemur 1.4876 -1.38226 -24.5162
ltibia 12.2606
lfoot -10.442 4.14502
ltoes -11.73
430
root 0.0846106 17.9175 -0.873294 0.733131 -9.15201 3.51049
lowerback -1.10426 -2.2705 -4.08007
upperback -0.221892 -2.99949 2.73268
thorax 0.747584 -1.51983 5.05063
lowerneck -20.0142 2.09574 -8.68748
upperneck 21.1627 4.86146 3.10526
head 9.73268 1.90893 3.19512
rclavicle -5.71506e-016 -9.54166e-015
rhumerus -35.4349 -12.5684 -70.5401
rradius 34.8073
rwrist 17.2016
rhand -27.4052 8.24025
rfingers 7.12502
rthumb -0.811478 -21.738
lclavicle -5.71506e-016 -9.54166e-015
lhumerus 22.9143 -15.377 66.4377
lradius 108.028
lwrist -4.47882
lhand -27.6318 21.8891
lfingers 7.12502
lthumb -1.03031 51.8664
rfemur -8.0828 7.34769 12.1547
rtibia 27.9211
rfoot -17.6736 -2.28888
rtoes 3.40824
lfemur 1.49265 -1.42298 -24.4914
ltibia 12.2437
lfoot -10.44 4.20831
ltoes -11.8028
